<?xml version="1.0"?>
<!-- Generated by SVGo -->
<svg width="500" height="500"
     xmlns="http://www.w3.org/2000/svg" 
     xmlns:xlink="http://www.w3.org/1999/xlink">
<g style="font-family:Calibri;font-size:16px;text-anchor:middle">
<text x="74" y="50" style="text-anchor:end;fill:gray">2700</text>
<text x="100" y="24" style="fill:gray">00</text>
<text x="100" y="50" >✀</text>
<text x="126" y="24" style="fill:gray">01</text>
<text x="126" y="50" >✁</text>
<text x="152" y="24" style="fill:gray">02</text>
<text x="152" y="50" >✂</text>
<text x="178" y="24" style="fill:gray">03</text>
<text x="178" y="50" >✃</text>
<text x="204" y="24" style="fill:gray">04</text>
<text x="204" y="50" >✄</text>
<text x="230" y="24" style="fill:gray">05</text>
<text x="230" y="50" >✅</text>
<text x="256" y="24" style="fill:gray">06</text>
<text x="256" y="50" >✆</text>
<text x="282" y="24" style="fill:gray">07</text>
<text x="282" y="50" >✇</text>
<text x="308" y="24" style="fill:gray">08</text>
<text x="308" y="50" >✈</text>
<text x="334" y="24" style="fill:gray">09</text>
<text x="334" y="50" >✉</text>
<text x="360" y="24" style="fill:gray">0A</text>
<text x="360" y="50" >✊</text>
<text x="386" y="24" style="fill:gray">0B</text>
<text x="386" y="50" >✋</text>
<text x="412" y="24" style="fill:gray">0C</text>
<text x="412" y="50" >✌</text>
<text x="438" y="24" style="fill:gray">0D</text>
<text x="438" y="50" >✍</text>
<text x="464" y="24" style="fill:gray">0E</text>
<text x="464" y="50" >✎</text>
<text x="490" y="24" style="fill:gray">0F</text>
<text x="490" y="50" >✏</text>
<text x="74" y="76" style="text-anchor:end;fill:gray">2710</text>
<text x="100" y="76" >✐</text>
<text x="126" y="76" >✑</text>
<text x="152" y="76" >✒</text>
<text x="178" y="76" >✓</text>
<text x="204" y="76" >✔</text>
<text x="230" y="76" >✕</text>
<text x="256" y="76" >✖</text>
<text x="282" y="76" >✗</text>
<text x="308" y="76" >✘</text>
<text x="334" y="76" >✙</text>
<text x="360" y="76" >✚</text>
<text x="386" y="76" >✛</text>
<text x="412" y="76" >✜</text>
<text x="438" y="76" >✝</text>
<text x="464" y="76" >✞</text>
<text x="490" y="76" >✟</text>
<text x="74" y="102" style="text-anchor:end;fill:gray">2720</text>
<text x="100" y="102" >✠</text>
<text x="126" y="102" >✡</text>
<text x="152" y="102" >✢</text>
<text x="178" y="102" >✣</text>
<text x="204" y="102" >✤</text>
<text x="230" y="102" >✥</text>
<text x="256" y="102" >✦</text>
<text x="282" y="102" >✧</text>
<text x="308" y="102" >✨</text>
<text x="334" y="102" >✩</text>
<text x="360" y="102" >✪</text>
<text x="386" y="102" >✫</text>
<text x="412" y="102" >✬</text>
<text x="438" y="102" >✭</text>
<text x="464" y="102" >✮</text>
<text x="490" y="102" >✯</text>
<text x="74" y="128" style="text-anchor:end;fill:gray">2730</text>
<text x="100" y="128" >✰</text>
<text x="126" y="128" >✱</text>
<text x="152" y="128" >✲</text>
<text x="178" y="128" >✳</text>
<text x="204" y="128" >✴</text>
<text x="230" y="128" >✵</text>
<text x="256" y="128" >✶</text>
<text x="282" y="128" >✷</text>
<text x="308" y="128" >✸</text>
<text x="334" y="128" >✹</text>
<text x="360" y="128" >✺</text>
<text x="386" y="128" >✻</text>
<text x="412" y="128" >✼</text>
<text x="438" y="128" >✽</text>
<text x="464" y="128" >✾</text>
<text x="490" y="128" >✿</text>
<text x="74" y="154" style="text-anchor:end;fill:gray">2740</text>
<text x="100" y="154" >❀</text>
<text x="126" y="154" >❁</text>
<text x="152" y="154" >❂</text>
<text x="178" y="154" >❃</text>
<text x="204" y="154" >❄</text>
<text x="230" y="154" >❅</text>
<text x="256" y="154" >❆</text>
<text x="282" y="154" >❇</text>
<text x="308" y="154" >❈</text>
<text x="334" y="154" >❉</text>
<text x="360" y="154" >❊</text>
<text x="386" y="154" >❋</text>
<text x="412" y="154" >❌</text>
<text x="438" y="154" >❍</text>
<text x="464" y="154" >❎</text>
<text x="490" y="154" >❏</text>
<text x="74" y="180" style="text-anchor:end;fill:gray">2750</text>
<text x="100" y="180" >❐</text>
<text x="126" y="180" >❑</text>
<text x="152" y="180" >❒</text>
<text x="178" y="180" >❓</text>
<text x="204" y="180" >❔</text>
<text x="230" y="180" >❕</text>
<text x="256" y="180" >❖</text>
<text x="282" y="180" >❗</text>
<text x="308" y="180" >❘</text>
<text x="334" y="180" >❙</text>
<text x="360" y="180" >❚</text>
<text x="386" y="180" >❛</text>
<text x="412" y="180" >❜</text>
<text x="438" y="180" >❝</text>
<text x="464" y="180" >❞</text>
<text x="490" y="180" >❟</text>
<text x="74" y="206" style="text-anchor:end;fill:gray">2760</text>
<text x="100" y="206" >❠</text>
<text x="126" y="206" >❡</text>
<text x="152" y="206" >❢</text>
<text x="178" y="206" >❣</text>
<text x="204" y="206" >❤</text>
<text x="230" y="206" >❥</text>
<text x="256" y="206" >❦</text>
<text x="282" y="206" >❧</text>
<text x="308" y="206" >❨</text>
<text x="334" y="206" >❩</text>
<text x="360" y="206" >❪</text>
<text x="386" y="206" >❫</text>
<text x="412" y="206" >❬</text>
<text x="438" y="206" >❭</text>
<text x="464" y="206" >❮</text>
<text x="490" y="206" >❯</text>
<text x="74" y="232" style="text-anchor:end;fill:gray">2770</text>
<text x="100" y="232" >❰</text>
<text x="126" y="232" >❱</text>
<text x="152" y="232" >❲</text>
<text x="178" y="232" >❳</text>
<text x="204" y="232" >❴</text>
<text x="230" y="232" >❵</text>
<text x="256" y="232" >❶</text>
<text x="282" y="232" >❷</text>
<text x="308" y="232" >❸</text>
<text x="334" y="232" >❹</text>
<text x="360" y="232" >❺</text>
<text x="386" y="232" >❻</text>
<text x="412" y="232" >❼</text>
<text x="438" y="232" >❽</text>
<text x="464" y="232" >❾</text>
<text x="490" y="232" >❿</text>
<text x="74" y="258" style="text-anchor:end;fill:gray">2780</text>
<text x="100" y="258" >➀</text>
<text x="126" y="258" >➁</text>
<text x="152" y="258" >➂</text>
<text x="178" y="258" >➃</text>
<text x="204" y="258" >➄</text>
<text x="230" y="258" >➅</text>
<text x="256" y="258" >➆</text>
<text x="282" y="258" >➇</text>
<text x="308" y="258" >➈</text>
<text x="334" y="258" >➉</text>
<text x="360" y="258" >➊</text>
<text x="386" y="258" >➋</text>
<text x="412" y="258" >➌</text>
<text x="438" y="258" >➍</text>
<text x="464" y="258" >➎</text>
<text x="490" y="258" >➏</text>
<text x="74" y="284" style="text-anchor:end;fill:gray">2790</text>
<text x="100" y="284" >➐</text>
<text x="126" y="284" >➑</text>
<text x="152" y="284" >➒</text>
<text x="178" y="284" >➓</text>
<text x="204" y="284" >➔</text>
<text x="230" y="284" >➕</text>
<text x="256" y="284" >➖</text>
<text x="282" y="284" >➗</text>
<text x="308" y="284" >➘</text>
<text x="334" y="284" >➙</text>
<text x="360" y="284" >➚</text>
<text x="386" y="284" >➛</text>
<text x="412" y="284" >➜</text>
<text x="438" y="284" >➝</text>
<text x="464" y="284" >➞</text>
<text x="490" y="284" >➟</text>
<text x="74" y="310" style="text-anchor:end;fill:gray">27A0</text>
<text x="100" y="310" >➠</text>
<text x="126" y="310" >➡</text>
<text x="152" y="310" >➢</text>
<text x="178" y="310" >➣</text>
<text x="204" y="310" >➤</text>
<text x="230" y="310" >➥</text>
<text x="256" y="310" >➦</text>
<text x="282" y="310" >➧</text>
<text x="308" y="310" >➨</text>
<text x="334" y="310" >➩</text>
<text x="360" y="310" >➪</text>
<text x="386" y="310" >➫</text>
<text x="412" y="310" >➬</text>
<text x="438" y="310" >➭</text>
<text x="464" y="310" >➮</text>
<text x="490" y="310" >➯</text>
<text x="74" y="336" style="text-anchor:end;fill:gray">27B0</text>
<text x="100" y="336" >➰</text>
<text x="126" y="336" >➱</text>
<text x="152" y="336" >➲</text>
<text x="178" y="336" >➳</text>
<text x="204" y="336" >➴</text>
<text x="230" y="336" >➵</text>
<text x="256" y="336" >➶</text>
<text x="282" y="336" >➷</text>
<text x="308" y="336" >➸</text>
<text x="334" y="336" >➹</text>
<text x="360" y="336" >➺</text>
<text x="386" y="336" >➻</text>
<text x="412" y="336" >➼</text>
<text x="438" y="336" >➽</text>
<text x="464" y="336" >➾</text>
<text x="490" y="336" >➿</text>
<text x="74" y="362" style="text-anchor:end;fill:gray">27C0</text>
<text x="100" y="362" >⟀</text>
<text x="126" y="362" >⟁</text>
<text x="152" y="362" >⟂</text>
<text x="178" y="362" >⟃</text>
<text x="204" y="362" >⟄</text>
<text x="230" y="362" >⟅</text>
<text x="256" y="362" >⟆</text>
<text x="282" y="362" >⟇</text>
<text x="308" y="362" >⟈</text>
<text x="334" y="362" >⟉</text>
<text x="360" y="362" >⟊</text>
<text x="386" y="362" >⟋</text>
<text x="412" y="362" >⟌</text>
<text x="438" y="362" >⟍</text>
<text x="464" y="362" >⟎</text>
<text x="490" y="362" >⟏</text>
<text x="74" y="388" style="text-anchor:end;fill:gray">27D0</text>
<text x="100" y="388" >⟐</text>
<text x="126" y="388" >⟑</text>
<text x="152" y="388" >⟒</text>
<text x="178" y="388" >⟓</text>
<text x="204" y="388" >⟔</text>
<text x="230" y="388" >⟕</text>
<text x="256" y="388" >⟖</text>
<text x="282" y="388" >⟗</text>
<text x="308" y="388" >⟘</text>
<text x="334" y="388" >⟙</text>
<text x="360" y="388" >⟚</text>
<text x="386" y="388" >⟛</text>
<text x="412" y="388" >⟜</text>
<text x="438" y="388" >⟝</text>
<text x="464" y="388" >⟞</text>
<text x="490" y="388" >⟟</text>
<text x="74" y="414" style="text-anchor:end;fill:gray">27E0</text>
<text x="100" y="414" >⟠</text>
<text x="126" y="414" >⟡</text>
<text x="152" y="414" >⟢</text>
<text x="178" y="414" >⟣</text>
<text x="204" y="414" >⟤</text>
<text x="230" y="414" >⟥</text>
<text x="256" y="414" >⟦</text>
<text x="282" y="414" >⟧</text>
<text x="308" y="414" >⟨</text>
<text x="334" y="414" >⟩</text>
<text x="360" y="414" >⟪</text>
<text x="386" y="414" >⟫</text>
<text x="412" y="414" >⟬</text>
<text x="438" y="414" >⟭</text>
<text x="464" y="414" >⟮</text>
<text x="490" y="414" >⟯</text>
<text x="74" y="440" style="text-anchor:end;fill:gray">27F0</text>
<text x="100" y="440" >⟰</text>
<text x="126" y="440" >⟱</text>
<text x="152" y="440" >⟲</text>
<text x="178" y="440" >⟳</text>
<text x="204" y="440" >⟴</text>
<text x="230" y="440" >⟵</text>
<text x="256" y="440" >⟶</text>
<text x="282" y="440" >⟷</text>
<text x="308" y="440" >⟸</text>
<text x="334" y="440" >⟹</text>
<text x="360" y="440" >⟺</text>
<text x="386" y="440" >⟻</text>
<text x="412" y="440" >⟼</text>
<text x="438" y="440" >⟽</text>
<text x="464" y="440" >⟾</text>
<text x="490" y="440" >⟿</text>
</g>
</svg>
